<svg viewBox="0 0 200 200" xmlns="http://www.w3.org/2000/svg" width="200" height="200">
  <circle cx="100" cy="100" r="95" fill="#FFE066"/>
  <path d="M 60 90 Q 55 60 75 50 Q 80 35 95 45 Q 105 35 120 48 Q 140 55 138 85 Q 145 110 125 130 Q 100 145 75 130 Q 55 115 60 90 Z" fill="#F4A261" stroke="#2B2B2B" stroke-width="3" stroke-linejoin="round"/>
  <path d="M 72 52 L 68 32 L 85 45" fill="#F4A261" stroke="#2B2B2B" stroke-width="3" stroke-linejoin="round"/>
  <path d="M 125 48 L 135 30 L 138 55" fill="#F4A261" stroke="#2B2B2B" stroke-width="3" stroke-linejoin="round"/>
  <path d="M 76 48 L 73 38 L 82 44 Z" fill="#FFB4A2"/>
  <path d="M 128 46 L 133 36 L 136 50 Z" fill="#FFB4A2"/>
  <path d="M 95 50 Q 100 55 105 50 M 70 75 Q 65 80 70 85 M 130 75 Q 135 80 130 85" fill="none" stroke="#2B2B2B" stroke-width="2" stroke-linecap="round"/>
  <circle cx="85" cy="90" r="6" fill="#2B2B2B"/>
  <circle cx="118" cy="88" r="6" fill="#2B2B2B"/>
  <circle cx="86" cy="89" r="1.5" fill="#FFF"/>
  <circle cx="119" cy="87" r="1.5" fill="#FFF"/>
  <path d="M 98 102 L 105 102 L 101 107 Z" fill="#E76F51"/>
  <path d="M 101 107 Q 95 115 90 112 M 101 107 Q 107 115 112 112" fill="none" stroke="#2B2B2B" stroke-width="2.5" stroke-linecap="round"/>
  <path d="M 70 105 L 85 108 M 70 112 L 85 113" stroke="#2B2B2B" stroke-width="2" stroke-linecap="round" fill="none"/>
  <path d="M 130 105 L 115 108 M 130 112 L 115 113" stroke="#2B2B2B" stroke-width="2" stroke-linecap="round" fill="none"/>
</svg>
