<svg viewBox="0 0 200 200" xmlns="http://www.w3.org/2000/svg" width="200" height="200">
  <circle cx="100" cy="100" r="95" fill="#A8E6CF"/>
  <path d="M 55 60 Q 40 80 50 110 Q 65 115 70 95 Z" fill="#8B5A2B" stroke="#2B2B2B" stroke-width="3" stroke-linejoin="round"/>
  <path d="M 145 60 Q 160 80 150 110 Q 135 115 130 95 Z" fill="#8B5A2B" stroke="#2B2B2B" stroke-width="3" stroke-linejoin="round"/>
  <path d="M 65 75 Q 60 50 100 48 Q 140 50 135 78 Q 142 120 100 135 Q 58 122 65 75 Z" fill="#D4A574" stroke="#2B2B2B" stroke-width="3" stroke-linejoin="round"/>
  <ellipse cx="80" cy="82" rx="14" ry="12" fill="#8B5A2B"/>
  <circle cx="82" cy="85" r="8" fill="#FFF" stroke="#2B2B2B" stroke-width="2.5"/>
  <circle cx="118" cy="83" r="8" fill="#FFF" stroke="#2B2B2B" stroke-width="2.5"/>
  <circle cx="84" cy="87" r="3.5" fill="#2B2B2B"/>
  <circle cx="116" cy="81" r="3.5" fill="#2B2B2B"/>
  <ellipse cx="100" cy="108" rx="7" ry="5" fill="#2B2B2B"/>
  <path d="M 95 118 Q 100 130 105 118 L 105 128 Q 100 135 95 128 Z" fill="#FF6B9D" stroke="#2B2B2B" stroke-width="2.5" stroke-linejoin="round"/>
  <path d="M 100 118 L 100 128" stroke="#2B2B2B" stroke-width="1.5"/>
</svg>
