<svg viewBox="0 0 200 200" xmlns="http://www.w3.org/2000/svg" width="200" height="200">
  <circle cx="100" cy="100" r="95" fill="#7DD3DC"/>
  <circle cx="30" cy="60" r="6" fill="#FFFFFF" opacity="0.6"/>
  <circle cx="25" cy="40" r="3" fill="#FFFFFF" opacity="0.6"/>
  <path d="M 155 100 Q 175 70 185 80 Q 178 100 185 120 Q 175 130 155 100 Z" fill="#FF8C42" stroke="#2B2B2B" stroke-width="3" stroke-linejoin="round"/>
  <path d="M 40 100 Q 50 55 110 60 Q 155 65 158 100 Q 155 138 110 142 Q 50 145 40 100 Z" fill="#FFA552" stroke="#2B2B2B" stroke-width="3" stroke-linejoin="round"/>
  <path d="M 90 60 Q 100 35 115 60" fill="#FF8C42" stroke="#2B2B2B" stroke-width="2.5" stroke-linejoin="round"/>
  <path d="M 90 140 Q 100 158 110 140" fill="#FF8C42" stroke="#2B2B2B" stroke-width="2.5" stroke-linejoin="round"/>
  <path d="M 70 80 Q 65 100 70 120" fill="none" stroke="#2B2B2B" stroke-width="2" stroke-linecap="round"/>
  <circle cx="58" cy="92" r="9" fill="#FFFFFF" stroke="#2B2B2B" stroke-width="2.5"/>
  <circle cx="60" cy="94" r="4" fill="#2B2B2B"/>
  <circle cx="61" cy="93" r="1.2" fill="#FFF"/>
  <path d="M 38 105 Q 30 110 38 115" fill="none" stroke="#2B2B2B" stroke-width="2.5" stroke-linecap="round"/>
  <path d="M 95 90 Q 100 95 95 100 M 110 85 Q 115 90 110 95 M 110 105 Q 115 110 110 115" fill="none" stroke="#2B2B2B" stroke-width="1.5"/>
</svg>
