<svg viewBox="0 0 200 200" xmlns="http://www.w3.org/2000/svg" width="200" height="200">
  <circle cx="100" cy="100" r="95" fill="#B5E2FA"/>
  <path d="M 45 110 Q 40 80 65 70 Q 100 60 135 70 Q 160 80 155 110 Q 160 145 100 150 Q 40 145 45 110 Z" fill="#7FC97F" stroke="#2B2B2B" stroke-width="3" stroke-linejoin="round"/>
  <ellipse cx="100" cy="130" rx="35" ry="15" fill="#C5E8B7"/>
  <circle cx="75" cy="68" r="18" fill="#7FC97F" stroke="#2B2B2B" stroke-width="3"/>
  <circle cx="125" cy="68" r="18" fill="#7FC97F" stroke="#2B2B2B" stroke-width="3"/>
  <circle cx="75" cy="68" r="13" fill="#FFFFFF"/>
  <circle cx="125" cy="68" r="13" fill="#FFFFFF"/>
  <circle cx="78" cy="72" r="8" fill="#2B2B2B"/>
  <circle cx="122" cy="65" r="8" fill="#2B2B2B"/>
  <circle cx="80" cy="70" r="2" fill="#FFFFFF"/>
  <circle cx="124" cy="63" r="2" fill="#FFFFFF"/>
  <path d="M 60 115 Q 100 135 140 115" fill="none" stroke="#2B2B2B" stroke-width="3" stroke-linecap="round"/>
  <circle cx="92" cy="105" r="1.5" fill="#2B2B2B"/>
  <circle cx="108" cy="105" r="1.5" fill="#2B2B2B"/>
</svg>
