<svg viewBox="0 0 200 200" xmlns="http://www.w3.org/2000/svg" width="200" height="200">
  <circle cx="100" cy="100" r="95" fill="#80CFD2"/>
  <path d="M 70 120 Q 60 140 55 155 Q 50 165 58 168 Q 65 165 65 155 Q 65 140 75 125 Z" fill="#FF6FA8" stroke="#2B2B2B" stroke-width="3" stroke-linejoin="round"/>
  <path d="M 82 120 Q 78 145 78 170 Q 85 172 88 168 Q 88 145 92 125 Z" fill="#FF6FA8" stroke="#2B2B2B" stroke-width="3" stroke-linejoin="round"/>
  <path d="M 96 120 Q 96 150 93 175 Q 100 178 105 175 Q 104 150 104 125 Z" fill="#FF6FA8" stroke="#2B2B2B" stroke-width="3" stroke-linejoin="round"/>
  <path d="M 112 120 Q 116 145 118 170 Q 125 172 122 165 Q 122 145 122 125 Z" fill="#FF6FA8" stroke="#2B2B2B" stroke-width="3" stroke-linejoin="round"/>
  <path d="M 130 120 Q 140 140 145 155 Q 150 165 142 168 Q 135 165 135 155 Q 135 140 128 125 Z" fill="#FF6FA8" stroke="#2B2B2B" stroke-width="3" stroke-linejoin="round"/>
  <path d="M 55 95 Q 50 50 100 45 Q 150 50 145 95 Q 145 115 130 120 L 70 120 Q 55 115 55 95 Z" fill="#FF8FBC" stroke="#2B2B2B" stroke-width="3" stroke-linejoin="round"/>
  <circle cx="62" cy="158" r="2" fill="#FFFFFF"/>
  <circle cx="83" cy="160" r="2" fill="#FFFFFF"/>
  <circle cx="100" cy="165" r="2" fill="#FFFFFF"/>
  <circle cx="118" cy="160" r="2" fill="#FFFFFF"/>
  <circle cx="138" cy="158" r="2" fill="#FFFFFF"/>
  <path d="M 75 80 Q 82 73 89 80" fill="none" stroke="#2B2B2B" stroke-width="3" stroke-linecap="round"/>
  <path d="M 111 80 Q 118 73 125 80" fill="none" stroke="#2B2B2B" stroke-width="3" stroke-linecap="round"/>
  <path d="M 88 95 Q 100 105 112 95" fill="none" stroke="#2B2B2B" stroke-width="2.5" stroke-linecap="round"/>
  <circle cx="72" cy="98" r="4" fill="#FF6FA8" opacity="0.5"/>
  <circle cx="128" cy="98" r="4" fill="#FF6FA8" opacity="0.5"/>
</svg>
