<svg viewBox="0 0 200 200" xmlns="http://www.w3.org/2000/svg" width="200" height="200">
  <circle cx="100" cy="100" r="95" fill="#D4BBFF"/>
  <path d="M 55 80 Q 50 45 100 42 Q 150 45 145 80 Q 160 140 100 155 Q 40 140 55 80 Z" fill="#9B6BFF" stroke="#2B2B2B" stroke-width="3" stroke-linejoin="round"/>
  <ellipse cx="100" cy="125" rx="32" ry="25" fill="#C5A8FF"/>
  <path d="M 65 55 L 58 38 L 78 50" fill="#9B6BFF" stroke="#2B2B2B" stroke-width="3" stroke-linejoin="round"/>
  <path d="M 135 55 L 142 38 L 122 50" fill="#9B6BFF" stroke="#2B2B2B" stroke-width="3" stroke-linejoin="round"/>
  <circle cx="80" cy="90" r="18" fill="#FFFFFF" stroke="#2B2B2B" stroke-width="3"/>
  <circle cx="120" cy="90" r="18" fill="#FFFFFF" stroke="#2B2B2B" stroke-width="3"/>
  <circle cx="80" cy="92" r="9" fill="#FFB627"/>
  <circle cx="120" cy="92" r="9" fill="#FFB627"/>
  <circle cx="80" cy="92" r="5" fill="#2B2B2B"/>
  <circle cx="120" cy="92" r="5" fill="#2B2B2B"/>
  <circle cx="83" cy="89" r="2.5" fill="#FFFFFF"/>
  <circle cx="123" cy="89" r="2.5" fill="#FFFFFF"/>
  <path d="M 93 110 L 107 110 L 100 124 Z" fill="#FFB627" stroke="#2B2B2B" stroke-width="2.5" stroke-linejoin="round"/>
  <path d="M 75 135 Q 85 145 75 152 M 95 138 Q 105 148 95 155 M 115 135 Q 125 145 115 152" fill="none" stroke="#2B2B2B" stroke-width="1.5" stroke-linecap="round"/>
</svg>
