<svg viewBox="0 0 600 280" xmlns="http://www.w3.org/2000/svg" width="600" height="280">
  <!-- decorative scribbles -->
  <path d="M 40 60 Q 50 50 60 60 Q 70 70 80 60" fill="none" stroke="#FF6FA8" stroke-width="3" stroke-linecap="round"/>
  <circle cx="530" cy="55" r="6" fill="none" stroke="#7FC97F" stroke-width="3"/>
  <path d="M 520 50 L 540 60 M 540 50 L 520 60" stroke="#FFB627" stroke-width="3" stroke-linecap="round"/>
  <path d="M 50 220 L 55 210 L 60 220 L 65 210 L 70 220" fill="none" stroke="#6FA8DC" stroke-width="3" stroke-linecap="round" stroke-linejoin="round"/>
  <circle cx="555" cy="225" r="5" fill="#9B6BFF"/>
  <circle cx="540" cy="240" r="3" fill="#FF6FA8"/>
  <path d="M 30 130 Q 25 140 30 150" fill="none" stroke="#FFB627" stroke-width="3" stroke-linecap="round"/>
  <path d="M 570 130 Q 575 140 570 150" fill="none" stroke="#FFB627" stroke-width="3" stroke-linecap="round"/>
  
  <!-- QUICK -->
  <g transform="translate(110, 75) rotate(-3)">
    <g transform="translate(0, 0)">
      <ellipse cx="32" cy="40" rx="28" ry="32" fill="#FF6B6B" stroke="#2B2B2B" stroke-width="4"/>
      <ellipse cx="32" cy="40" rx="12" ry="14" fill="#FFF4E0" stroke="#2B2B2B" stroke-width="3"/>
      <path d="M 48 60 L 62 76" stroke="#2B2B2B" stroke-width="5" stroke-linecap="round"/>
    </g>
    <g transform="translate(75, 5)">
      <path d="M 8 5 L 8 50 Q 8 67 25 67 Q 42 67 42 50 L 42 5" fill="#4ECDC4" stroke="none"/>
      <path d="M 5 0 L 5 50 Q 5 70 25 70 Q 45 70 45 50 L 45 0" fill="none" stroke="#2B2B2B" stroke-width="4" stroke-linecap="round"/>
    </g>
    <g transform="translate(140, 5)">
      <rect x="5" y="0" width="18" height="70" fill="#FFB627" stroke="#2B2B2B" stroke-width="4" rx="3"/>
      <rect x="0" y="-3" width="28" height="10" fill="#FFB627" stroke="#2B2B2B" stroke-width="4" rx="2"/>
      <rect x="0" y="67" width="28" height="10" fill="#FFB627" stroke="#2B2B2B" stroke-width="4" rx="2"/>
    </g>
    <g transform="translate(175, 5)">
      <path d="M 48 14 Q 30 -2 14 17 Q -2 36 14 58 Q 30 78 48 63" fill="#7FC97F" stroke="none"/>
      <path d="M 50 12 Q 30 -5 12 15 Q -5 35 12 60 Q 30 80 50 65" fill="none" stroke="#2B2B2B" stroke-width="4" stroke-linecap="round"/>
    </g>
    <g transform="translate(238, 5)">
      <rect x="5" y="0" width="14" height="70" fill="#9B6BFF" stroke="#2B2B2B" stroke-width="4" rx="3"/>
      <path d="M 19 38 L 45 5 M 19 38 L 48 73" stroke="#2B2B2B" stroke-width="6" stroke-linecap="round"/>
      <path d="M 19 38 L 45 5 M 19 38 L 48 73" stroke="#9B6BFF" stroke-width="3" stroke-linecap="round"/>
    </g>
  </g>
  
  <!-- QUIZ -->
  <g transform="translate(140, 175) rotate(2)">
    <g transform="translate(0, 0)">
      <ellipse cx="32" cy="40" rx="28" ry="32" fill="#6FA8DC" stroke="#2B2B2B" stroke-width="4"/>
      <ellipse cx="32" cy="40" rx="12" ry="14" fill="#FFF4E0" stroke="#2B2B2B" stroke-width="3"/>
      <path d="M 48 60 L 62 76" stroke="#2B2B2B" stroke-width="5" stroke-linecap="round"/>
    </g>
    <g transform="translate(75, 5)">
      <path d="M 5 5 L 5 50 Q 5 67 25 67 Q 45 67 45 50 L 45 5" fill="#FF8C42" stroke="none"/>
      <path d="M 5 0 L 5 50 Q 5 70 25 70 Q 45 70 45 50 L 45 0" fill="none" stroke="#2B2B2B" stroke-width="4" stroke-linecap="round"/>
    </g>
    <g transform="translate(140, 5)">
      <rect x="5" y="0" width="18" height="70" fill="#FF6FA8" stroke="#2B2B2B" stroke-width="4" rx="3"/>
      <rect x="0" y="-3" width="28" height="10" fill="#FF6FA8" stroke="#2B2B2B" stroke-width="4" rx="2"/>
      <rect x="0" y="67" width="28" height="10" fill="#FF6FA8" stroke="#2B2B2B" stroke-width="4" rx="2"/>
    </g>
    <g transform="translate(175, 5)">
      <path d="M 5 5 L 50 5 L 5 70 L 50 70 L 50 60 L 22 60 L 50 15 L 50 5 L 15 5 L 15 12 Z" fill="#FFB627" stroke="#2B2B2B" stroke-width="4" stroke-linejoin="round"/>
    </g>
  </g>
  
  <!-- Question bubble -->
  <g transform="translate(440, 100) rotate(15)">
    <circle cx="0" cy="0" r="28" fill="#FF6FA8" stroke="#2B2B2B" stroke-width="4"/>
    <text x="0" y="10" text-anchor="middle" font-family="'Comic Sans MS', cursive, sans-serif" font-size="36" font-weight="bold" fill="#FFFFFF" stroke="#2B2B2B" stroke-width="1.5">?</text>
  </g>
  
  <!-- Lightning -->
  <g transform="translate(75, 90) rotate(-15)">
    <path d="M 10 0 L 0 25 L 8 25 L 2 45 L 18 18 L 10 18 Z" fill="#FFB627" stroke="#2B2B2B" stroke-width="3" stroke-linejoin="round"/>
  </g>
  
  <!-- Sparkles -->
  <g transform="translate(485, 165)">
    <path d="M 0 -8 L 2 -2 L 8 -2 L 3 2 L 5 8 L 0 4 L -5 8 L -3 2 L -8 -2 L -2 -2 Z" fill="#FFB627" stroke="#2B2B2B" stroke-width="2" stroke-linejoin="round"/>
  </g>
  <g transform="translate(95, 165) scale(0.7)">
    <path d="M 0 -8 L 2 -2 L 8 -2 L 3 2 L 5 8 L 0 4 L -5 8 L -3 2 L -8 -2 L -2 -2 Z" fill="#7FC97F" stroke="#2B2B2B" stroke-width="2" stroke-linejoin="round"/>
  </g>
</svg>
